<mxfile host="app.diagrams.net" agent="Mozilla/5.0 (Windows NT 10.0; Win64; x64) AppleWebKit/537.36 (KHTML, like Gecko) Chrome/141.0.0.0 Safari/537.36" version="28.2.7">
  <diagram id="network" name="Network">
    <mxGraphModel dx="1507" dy="620" grid="1" gridSize="10" guides="1" tooltips="1" connect="1" arrows="1" fold="1" page="1" pageScale="1" pageWidth="827" pageHeight="1169" math="0" shadow="0">
      <root>
        <mxCell id="0" />
        <mxCell id="1" parent="0" />
        <mxCell id="cloud" value="Internet" style="shape=mxgraph.cisco.network.cloud;html=1;perimeter=orthogonalPerimeter;fillColor=#e1d5e7;strokeColor=#9673a6;" parent="1" vertex="1">
          <mxGeometry x="420" y="20" width="120" height="70" as="geometry" />
        </mxCell>
        <mxCell id="pfsense" value="" style="shape=mxgraph.cisco.security.firewall;html=1;perimeter=orthogonalPerimeter;fillColor=#f8cecc;strokeColor=#b85450;" parent="1" vertex="1">
          <mxGeometry x="430" y="195" width="160" height="90" as="geometry" />
        </mxCell>
        <mxCell id="lan_lbl" value="LAN" style="text;html=1;whiteSpace=wrap;align=left;verticalAlign=top;" parent="1" vertex="1">
          <mxGeometry x="250" y="200" width="40" height="20" as="geometry" />
        </mxCell>
        <mxCell id="dmz_lbl" value="DMZ (OPT1)" style="text;html=1;whiteSpace=wrap;align=left;verticalAlign=top;" parent="1" vertex="1">
          <mxGeometry x="640" y="330" width="90" height="20" as="geometry" />
        </mxCell>
        <mxCell id="switch" value="Switch" style="shape=mxgraph.cisco.switches.workgroup_switch;html=1;perimeter=orthogonalPerimeter;fillColor=#d5e8d4;strokeColor=#82b366;" parent="1" vertex="1">
          <mxGeometry x="120" y="195" width="120" height="70" as="geometry" />
        </mxCell>
        <mxCell id="lan_group" value="LAN 192.168.33.0/24" style="swimlane;rounded=1;html=1;horizontal=0;startSize=28;fillColor=#ffffff;strokeColor=#000000;" parent="1" vertex="1">
          <mxGeometry x="30" y="360" width="480" height="240" as="geometry" />
        </mxCell>
        <mxCell id="srv_dhcp" value="DHCP + DNS + SSH\n192.168.33.2" style="shape=mxgraph.cisco.servers.generic_server;html=1;perimeter=orthogonalPerimeter;fillColor=#fff2cc;strokeColor=#000000;" parent="lan_group" vertex="1">
          <mxGeometry x="50" y="20" width="190" height="100" as="geometry" />
        </mxCell>
        <mxCell id="srv_samba" value="Samba + FTP\n192.168.33.4" style="shape=mxgraph.cisco.servers.generic_server;html=1;perimeter=orthogonalPerimeter;fillColor=#fff2cc;strokeColor=#000000;" parent="lan_group" vertex="1">
          <mxGeometry x="280" y="20" width="160" height="100" as="geometry" />
        </mxCell>
        <mxCell id="dmz_group" value="DMZ 192.168.50.0/24" style="swimlane;rounded=1;html=1;horizontal=0;startSize=28;fillColor=#ffffff;strokeColor=#000000;" parent="1" vertex="1">
          <mxGeometry x="550" y="360" width="360" height="240" as="geometry" />
        </mxCell>
        <mxCell id="srv_web" value="Apache + MySQL\n192.168.50.2" style="shape=mxgraph.cisco.servers.generic_server;html=1;perimeter=orthogonalPerimeter;fillColor=#fff2cc;strokeColor=#000000;" parent="dmz_group" vertex="1">
          <mxGeometry x="40" y="20" width="200" height="100" as="geometry" />
        </mxCell>
        <mxCell id="dns_note" value="nslookup â†’ ciberbambi.local" style="text;html=1;whiteSpace=wrap;align=left;verticalAlign=top;" parent="1" vertex="1">
          <mxGeometry x="110" y="500" width="230" height="50" as="geometry" />
        </mxCell>
        <mxCell id="e1" style="endArrow=classic;" parent="1" source="cloud" target="pfsense" edge="1">
          <mxGeometry relative="1" as="geometry" />
        </mxCell>
        <mxCell id="e2" style="endArrow=classic;" parent="1" source="switch" target="pfsense" edge="1">
          <mxGeometry relative="1" as="geometry" />
        </mxCell>
        <mxCell id="e3" style="endArrow=classic;" parent="1" source="srv_dhcp" target="switch" edge="1">
          <mxGeometry relative="1" as="geometry" />
        </mxCell>
        <mxCell id="e4" style="endArrow=classic;" parent="1" source="srv_samba" target="switch" edge="1">
          <mxGeometry relative="1" as="geometry" />
        </mxCell>
        <mxCell id="e5" style="endArrow=classic;" parent="1" source="srv_web" target="pfsense" edge="1">
          <mxGeometry relative="1" as="geometry" />
        </mxCell>
        <mxCell id="JZd24aK4SeBq0z_tlNC9-2" value="WAN = 10.0.15.1" style="text;html=1;whiteSpace=wrap;strokeColor=none;fillColor=none;align=center;verticalAlign=middle;rounded=0;" vertex="1" parent="1">
          <mxGeometry x="480" y="160" width="120" height="30" as="geometry" />
        </mxCell>
      </root>
    </mxGraphModel>
  </diagram>
</mxfile>
